<svg id="Layer_1" data-name="Layer 1" xmlns="http://www.w3.org/2000/svg" viewBox="0 0 168.05 156.07"><defs><style>.cls-1{fill:#ff4835;}.cls-2{fill:#ff7e3c;}.cls-3{fill:#e1e5e9;}.cls-4{fill:#284456;}.cls-5{fill:#edeff1;}.cls-6{fill:#465e6d;}.cls-7{fill:#e71f17;}.cls-8{fill:#000100;}.cls-9{fill:#fff;}.cls-10{fill:#f9f9fa;}.cls-11{fill:none;}.cls-12{opacity:0.91;}.cls-13{fill:#ff231a;}.cls-14{fill:#9e2820;}.cls-15{fill:#7c97a0;}.cls-16{fill:#87a0a8;}.cls-17{isolation:isolate;opacity:0.7;}.cls-18{fill:#567984;}.cls-19{opacity:0.99;}.cls-20{fill:#3e555c;}.cls-21{fill:#394f56;}.cls-22{fill:#ee4036;}.cls-23{fill:#be1e2d;}.cls-24{fill:#231f20;}</style></defs><path class="cls-1" d="M142.17,9.87c-.13.21-.09.38-.27.43,1.31-1.6,1.84-3.87,3.38-5.35a12.15,12.15,0,0,1,4.36-2.59,5.82,5.82,0,0,1-1,1.87l.55-.15c-.22,1.3-2.53,3.52-3.71,4.19-1.32.89-2.51.86-3.55,2Z"/><path class="cls-1" d="M152.19,26.69c.94-4.59,5-4.59,6.19-6.77h0a8.31,8.31,0,0,1-5.65,6.51Z"/><path class="cls-1" d="M159.23,27.76a7.38,7.38,0,0,1-2,3.19c3-2.34,3.52-3.3,3.52-3.8C160.49,27.35,159.52,28.06,159.23,27.76Z"/><path class="cls-2" d="M149.05,44.48c-.22-1.14.34-1.93.4-3s-1-1.83-1.3-2.79a4.16,4.16,0,0,1,.37-2.77c-.6,0-1.45,0-1.61-.7-1.44-.08-3.34-1-3.73-2.62-.19-.76.19-1.47-.11-2.15s-.68-.83-.7-1.76c-.15,0-.36-.05-.51,0a8.32,8.32,0,0,1,.24-1.64c-2.37.63-4.06-.54-6.24-1.87s-1.84-4.12-.69-6c-.75.42-6.52,6.22-6.8,4-.67.1-1.35.72-2,.67,0-.17,0-.39,0-.57a9.47,9.47,0,0,1-3.67,2.26c-.76.28-3.32,1.08-3.13-.45-2,1.58-4.27,2.94-6.16,4.69-.94.88-1.92,1.8-2.82,2.76.34-.32.69-.63,1-.94a23.12,23.12,0,0,1,32.06,2.47,21.69,21.69,0,0,1,5.45,14.63,10.84,10.84,0,0,1,1-1.67A6.1,6.1,0,0,1,149.05,44.48Z"/><path class="cls-1" d="M153.85,38.17c-1.08-1.34-4.07-.56-3.7-2.26s6.47-.76,5.89-7.52c-.92,3-3.7,5-6.85,3.19-1.76-1.28-.78-3.67,1.78-4.43-3.13,0-4.53,3-5.78,3.32-1.68-3.32,3.12-4.37,5-6.62,1.6-2.1,4.2-5,4.86-9.16-4.11,6.57-7.76,5.06-8,2.6-1.15,1-3.43,4.08-5,3.73a1.61,1.61,0,0,0-.2-.94c-1.16.5-3.15,3-4.28,1.16-2-3.64,4.59-8.71,8.45-12.19-4.1,2.44-7.79,3.48-9.52,5.54.06-3.89-3.09.46-5,.28-4.73-.8.42-4.67,3.18-5.82-7.12,1.25-9.4,3.85-13.26,9.17l-.29-.13c-2.29,1.52-2.71,6.64-5.61,6.33-1.88-.57,1.34-4,1-4.67-4.69,2.35-7.69,6.49-9.39,9.3-2.49,4-3.94,11.45-3.23,16.07a21.78,21.78,0,0,1,6.66-12.6c.9-1,1.88-1.88,2.82-2.76,1.89-1.75,4.17-3.11,6.16-4.69-.19,1.53,2.37.73,3.13.45a9.47,9.47,0,0,0,3.67-2.26c0,.18,0,.4,0,.57.68.05,1.36-.57,2-.67.28,2.25,5.63-2.82,6.38-3.24-1.15,1.9-1.87,4.17.42,5.56s4.56,2.22,6.93,1.59a8.32,8.32,0,0,0-.24,1.64c.15,0,.36.05.51,0,0,.93.37,1,.7,1.76s-.08,1.39.11,2.15c.39,1.58,2.29,2.54,3.73,2.62.16.7,1,.73,1.61.7a4.16,4.16,0,0,0-.37,2.77c.3,1,1.35,1.82,1.3,2.79s-.62,1.82-.4,3a6.1,6.1,0,0,0,1.1,2.53,10.84,10.84,0,0,0-1,1.67c0,.51,0,1-.07,1.53a19.41,19.41,0,0,1-.26,2c2.28-3.05,4.46-3.19,5.92-4.6,3.77-3.66,1.81-6.08,4.31-8.41-1.22,0-3.59,2.49-5.17,3.43C151.52,44,149.47,39.66,153.85,38.17Z"/><path class="cls-2" d="M120.89,23.48c-.13.19-.14.37-.27.37,1.18-1.27,2-3.49,3.29-4.58a6,6,0,0,1,3.31-1.39,6.3,6.3,0,0,1-1,1.65h.37a7.21,7.21,0,0,1-3.24,3.27c-1,.53-1.77.13-2.68,1Z"/><path class="cls-3" d="M147.53,43.06a22,22,0,1,0-1.87,16.77A21.91,21.91,0,0,0,147.53,43.06Z"/><path class="cls-4" d="M147.53,43.06a22,22,0,1,0-1.87,16.77A21.91,21.91,0,0,0,147.53,43.06Zm-26.35-15a22.54,22.54,0,0,1,3.51-.57,21.7,21.7,0,0,1,7.53.75A11.77,11.77,0,0,1,134,29l2.49,1.37.1.06c0,.65,0,1.3,0,1.95l0,1.8-1,0c-.82,0-2.31.06-2.93.11h0c-.72.06-2.27.25-3.13.36l-.24,0-.78.1c-.06,0-.42-.25-.93-.53-.69-.38-1.62-.88-2.46-1.27a3.72,3.72,0,0,0-.44-.2l0,0-.14-.07a27.66,27.66,0,0,0-4.11-1.34c0-.11.09-.43.16-.77l.54-2.46ZM104.66,48.87h.65c0,.07,0,.27.09.57a21,21,0,0,0,.71,2.87h0l0,.07A15.71,15.71,0,0,0,107.22,55c.13.25.26.5.4.75l0,0a13.24,13.24,0,0,0,.33,1.74c0,.13.07.28.11.42V58c0,.05,0,.09,0,.13a1.92,1.92,0,0,0,.09.32c.12.44.25.89.41,1.35a19.19,19.19,0,0,0,1.13,2.56c0,.09.08.16.12.24l.25.49.19.35,0,.07-.17.11,0,0A21.84,21.84,0,0,1,104.66,48.87ZM115,50.41c.07-.29.14-.6.21-.85,0,0,0-.06,0-.09a1.54,1.54,0,0,0,.05-.17c.3-1,1.43-4,1.54-4.24.1,0,.59-.18,1.23-.35,1.19-.34,2.76-.76,3.47-.92h0c1.7-.33,4.55-.78,4.78-.81L130,47l2.41,2.63a1.54,1.54,0,0,1,.17.19l.16.16c-.1.32-1.14,3.74-1.54,4.86-.18.53-.59,1.59-1.25,3.25-.22.55-.4,1-.45,1.14l0,0h0l-.95.19-2.35.47L120.53,61l0,0h0l-2.38-2.56c-.34-.38-.68-.76-1-1.15-.72-.86-2.65-3.48-2.81-3.69h0l0-.11c0-.19.12-.54.21-1,0-.18.07-.36.11-.53s.13-.64.21-1S115,50.63,115,50.41ZM124,70.76l-.35-.25-.26-.18-2.13-1.52-2.84-2,0,0,0,0,.33-1c.26-.81.45-1.37.56-1.63.29-.75,1.25-2.76,1.35-3L129,59.45l.35-.07.22,0h0l6.24,3.92.29.18.14.09L135,66.24l-.57,1.26-.65,1.44-.78.23c-1.19.35-2.42.71-3.65,1a24.59,24.59,0,0,1-3.65.54l-.61,0-1,0Zm-9.18-16.4c.45.6,1.09,1.46,1.62,2.14C115.73,55.69,115.16,54.91,114.78,54.36Zm-4.37,9.19h0a38.41,38.41,0,0,0,4,2,32.81,32.81,0,0,0,3.87,1.27l.34.25,3.13,2.22,1.88,1.34.19.14a21.71,21.71,0,0,1-13.56-7A1.25,1.25,0,0,1,110.41,63.55ZM135.1,69l-.72,0-.52,0a1.54,1.54,0,0,0,.08-.19l1.38-3.06c.33-.72.65-1.43,1-2.15l.12-.09.4-.3a26,26,0,0,0,2.58-2c.27-.22.51-.43.68-.58.47-.43,1.38-1.4,2.06-2.14l1.17-1.29h3.25a21.16,21.16,0,0,1-1.19,2.56A21.67,21.67,0,0,1,135.23,69Zm11.49-12h-3.27c0-.33-.09-.68-.14-1-.11-.84-.32-2.33-.48-2.9-.47-1.73-1.45-4.2-1.54-4.42l.11-.32c.3-.93.84-2.61,1-3.32.21-.87.68-3.57.74-3.88.19,0,1.32-.23,1.75-.25s1.34.07,1.67.09c.28.71.54,1.43.75,2.17A21.53,21.53,0,0,1,146.59,57Zm-3.63-16h0v0s-.52,3-.75,3.91c-.17.71-.71,2.38-1,3.32l-.12.35h0a37.2,37.2,0,0,1-4.09.88c-1.68.24-3.82.38-4.13.4h0l0,0-.17-.18-.17-.19-2.42-2.63-3.71-4a32.1,32.1,0,0,1,.83-4.17,36.39,36.39,0,0,1,1.41-3.85l.77-.1.24,0c.86-.11,2.41-.3,3.13-.35h0c.62-.05,2.1-.09,2.93-.11l1,0h.05a30.29,30.29,0,0,1,3.43,3.18A32.67,32.67,0,0,1,143,41.07ZM113.24,38h0l.17.47c.24.64.46,1.22.68,1.78s.4,1,.55,1.3l.06.12a18.4,18.4,0,0,0,1.5,2.63c.27.41.47.69.53.76-.11.28-1.24,3.23-1.54,4.25l0,.17,0,.11c-.13.47-.24,1-.35,1.43q-.06.26-.12.48a16.21,16.21,0,0,0-.43,2.12l-1,.41-.33.14c-.62.24-1.26.5-1.9.7s-2,.54-2.45.66l-.29.07-.52.13c-.32-.56-.6-1.13-.85-1.68s-.48-1.14-.66-1.69a22.55,22.55,0,0,1-.69-2.75c-.07-.37-.11-.62-.12-.68v0c0-.36.12-.74.22-1.21.07-.27.13-.54.2-.8l.07-.31c.08-.32.16-.65.23-1,.17-.73.34-1.48.57-2.21s.84-2.2,1.32-3.33c.26-.61.46-1.09.51-1.19s1-.29,1.7-.49l.63-.16c.23,0,.63-.08,1.23-.14Zm-5.87,3.33.25-.61C107.54,40.9,107.46,41.1,107.37,41.3Zm32.79-8.86-.53-.36a28.89,28.89,0,0,0-2.95-1.63V30.4l-.15-.08L134,29l-.45-.23a22.34,22.34,0,0,1,3.24,1.46A22.65,22.65,0,0,1,140.16,32.44Zm-19.08-4.31h0c-.18.82-.35,1.64-.53,2.46l-.17.8a24.13,24.13,0,0,0-3.85,3c-.84.85-2,2.12-2.66,2.79l-.63.68,0,0v0l-1.15.08c-.61.05-1,.1-1.24.14a6.43,6.43,0,0,0-.64.16c-.78.21-1.67.48-1.72.5,0-.16-.12-.7-.14-.93a3.09,3.09,0,0,1,0-.82A21.65,21.65,0,0,1,121.08,28.13Z"/><path class="cls-5" d="M131.86,50.23,126,43.7l-5.68,1.17a9.18,9.18,0,0,1,1.4.07c2.62.33,4.68,2.74,6,4.87a7.94,7.94,0,0,1,.3,8.21,7.48,7.48,0,0,1-.56.86l1.61-.34Z"/><path class="cls-6" d="M141,49.56l-7.45,1.2a4,4,0,0,0-.36.9c-.29.71-.57,1.41-.85,2.12s-.68,1.68-1,2.52a10.71,10.71,0,0,0-.74,1.92c0-.13,1.09-.34,1.22-.37a9.1,9.1,0,0,1,1.65-.33,7.87,7.87,0,0,1,3.16.4c1,.33,2,1.06,3.09.86a9.09,9.09,0,0,0,2.37-1c.55-.27.94-.4.85-1.08a13.91,13.91,0,0,0-.45-1.65l-1.38-5.13A3.29,3.29,0,0,0,141,49.56Z"/><path class="cls-6" d="M125.78,42.36a.81.81,0,0,0,.37-.33c.2-.39,0-1,0-1.41.1-.59.16-1.18.29-1.78s.3-1.19.48-1.79.5-1,.67-1.57c.25-.82-1.76-1.18-2.32-1.43-1-.46-1.93-1-3-1.38-.34-.14-2.14-1.44-2.15-.3,0,.57,1.14,1.05,1.53,1.3a5.9,5.9,0,0,1,2.39,3.22c.37,1.35-.54,2.78-1.33,3.81A6.77,6.77,0,0,1,120,42.61c-.55.24-1.89.35-1.84,1.19a2.81,2.81,0,0,0,1.25-.13c1.17-.23,2.32-.54,3.5-.8.59-.13,1.21-.09,1.8-.2A4,4,0,0,0,125.78,42.36Z"/><path class="cls-5" d="M135.4,63.77l-6.23-3.53-5.7.85c.48,0,1,0,1.4,0a9.23,9.23,0,0,1,5.82,2.48c1.48,1.33,2.73,3.36,1.17,4.86-.18.18-.93.83-1.14,1l2.17-.74Z"/><path class="cls-5" d="M115.84,45.27l-3-6.8a5.36,5.36,0,0,0-1.14,0c-.33.13-.31.22-.25.56.12.62.68,1.12.93,1.69a27,27,0,0,1,1.27,4.07,8.89,8.89,0,0,1-.4,6.4,6.71,6.71,0,0,1-1.41,1.77,5.43,5.43,0,0,0-.78.81c-.16.25-.17.53-.39.76.52-.22,1-.42,1.57-.63.17-.07,1.46-.43,1.51-.61Z"/><path class="cls-5" d="M142.56,41.15l-6.23-6.63-3.44.3c-.75.07-1,.14-.51.81a12.77,12.77,0,0,0,1,1.07,11.6,11.6,0,0,1,1.81,2.08,8.08,8.08,0,0,1,1.26,4c-.07,1.25-1.15,2.46-1,3.67.1.74.66,1.27.73,2,.09,1,1,.72,1.8.56s1.83-.39,2.75-.59Z"/><path class="cls-5" d="M146.34,56.09a1,1,0,0,1-.43.08c-.75,0-1.5,0-2.25,0a9.46,9.46,0,0,1,.08-1.68,11.71,11.71,0,0,0-.23-1.78,12.43,12.43,0,0,0-.59-2.17c-.14-.36-.67-1.08-.6-1.46.11-.55.33-1,.49-1.59a11.86,11.86,0,0,0,.22-1.57c.1-.78.15-1.56.28-2.33a8.39,8.39,0,0,1,.4-1.59l2.47,0c.15,1.11.82,2.15,1,3.28.09.51.22,1,.31,1.54a7.18,7.18,0,0,1,.26,2.25,20.38,20.38,0,0,0-.4,2.6c-.06.54-.06,1.08-.12,1.62a10.55,10.55,0,0,1-.42,1.85C146.67,55.63,146.63,56,146.34,56.09Z"/><g id="path2268"><path class="cls-7" d="M91,145.6a6.39,6.39,0,0,1-5.54-3.29c-2.31-1.35-2.85-1.65-4.72-1.75-1.87.1-2.42.4-4.72,1.75a6.35,6.35,0,0,1-6.27,3.25,8.44,8.44,0,0,1-6.62-5.39,20.61,20.61,0,0,1-8.82-2.76l-3.46.35-1.51-4.22a16.15,16.15,0,0,1-6.2-3.21l-2.26,3-1.62-3.61c-2.44-5.46-2.85-7.12-3.07-9.91l0,0c-1.61-2.77-3-5.19-3.54-8.62l-2.76.4L29.66,109c-.07-1-.17-2.08-.28-3.19a47.25,47.25,0,0,1,0-12.75l.06-.32.15-.3a1,1,0,0,1,.09-.17,12,12,0,0,1-5.55-.86c-4.34-1.81-6.95-5.92-7.16-11.27V80a12.16,12.16,0,0,1,7.83-11.3q-.21-.58-.45-1.17a29.51,29.51,0,0,0-1.73-3.51q-.13-.26-.27-.48l-.46-.83c-.09-.17-.21-.39-.34-.68a4.42,4.42,0,0,1-.46-3.28,4.68,4.68,0,0,1,.39-1.32,10.56,10.56,0,0,1,1.06-1.92l.23-.35c.41-.65.92-1.42,1.56-2.36.77-1.12,1.38-2,1.69-2.43,4-10.4,7.33-17.59,10.27-22a17.84,17.84,0,0,1,4-4.52,8.36,8.36,0,0,1,4.83-1.74h0l.48,0,.36-.07,1.17.3A132.39,132.39,0,0,1,80.71,36.17a132.39,132.39,0,0,1,33.55-13.76l1.17-.3.36.07.48,0a8.34,8.34,0,0,1,4.88,1.74,17.84,17.84,0,0,1,4,4.52c2.94,4.4,6.3,11.59,10.27,22,.56.79,1.12,1.61,1.69,2.43s1.15,1.71,1.56,2.36l.23.35A10.56,10.56,0,0,1,140,57.47a4.91,4.91,0,0,1,.39,1.32,4.45,4.45,0,0,1-.46,3.28c-.13.29-.25.51-.34.68s-.3.53-.46.83l-.28.48a31.29,31.29,0,0,0-1.72,3.51q-.24.59-.45,1.17A12.15,12.15,0,0,1,144.46,80v.09c-.21,5.35-2.82,9.46-7.16,11.27a12,12,0,0,1-5.55.86,1,1,0,0,1,.09.17l.15.3,0,.32a46.87,46.87,0,0,1,0,12.75c-.11,1.11-.21,2.16-.28,3.19l-.18,2.52-2.76-.4c-.52,3.43-1.93,5.85-3.54,8.62l0,0c-.23,2.79-.63,4.45-3.08,9.91l-1.61,3.61-2.26-3a16.22,16.22,0,0,1-6.2,3.21l-1.51,4.22-3.46-.35a20.65,20.65,0,0,1-8.82,2.76,8.44,8.44,0,0,1-6.62,5.39A6.06,6.06,0,0,1,91,145.6Zm-23.81-8.12a4.05,4.05,0,0,0,3.08,3.41,1.76,1.76,0,0,0,1.85-1.26l.31-.68,1.13-.65c2.62-1.52,3.93-2.28,7.06-2.44h.24c3.13.15,4.44.92,7,2.44L89,139l.31.68a1.75,1.75,0,0,0,1.85,1.26,4.05,4.05,0,0,0,3.08-3.41l2.26.1-.15-1.94c3.75-.3,5.94-.75,9-2.64l.68-.42,1.39.14,1.07-3,1.14-.34c4.34-1.3,5.19-2.05,7.23-4.21l1.89-2,.71.92a14.73,14.73,0,0,0,1.16-5.19l0-.54.56-1c1.49-2.57,2.53-4.36,2.93-6.83-.25-.31-.5-.63-.74-1l-3-4.42,6.91,1c0-.26,0-.53.07-.79a44,44,0,0,0,.12-11.12c-.54-.93-2.2-3.55-3.63-5.73l3.55-3a7.68,7.68,0,0,0,8.09,1.58c1.51-.63,4.07-2.39,4.28-7.07a7.43,7.43,0,0,0-6.38-7.26l-2.55-.35.58-2.51a27.36,27.36,0,0,1,1.32-4.09,36,36,0,0,1,2-4c.1-.18.19-.35.28-.5s.29-.5.41-.73a4.25,4.25,0,0,0,.21-.43c0-.1.09-.19.13-.27s0-.15,0-.27,0-.09,0-.12l0-.06h0l0-.05h0a6.24,6.24,0,0,0-.65-1.18,4.64,4.64,0,0,1-.26-.4c-.39-.61-.88-1.34-1.5-2.24s-1.2-1.74-1.79-2.58l-.19-.28-.11-.27C127.25,42.15,124,35.17,121.24,31a13.79,13.79,0,0,0-2.92-3.39,3.7,3.7,0,0,0-2-.78l-.32,0h0l-.2,0-.34,0A125.94,125.94,0,0,0,81.94,40.91l-1.23.76-1.23-.76A126.09,126.09,0,0,0,46,27l-.34,0-.2,0h0l-.32,0a3.75,3.75,0,0,0-2,.78A13.79,13.79,0,0,0,40.18,31c-2.77,4.14-6,11.12-9.9,21.33l-.1.27-.2.28c-.22.32-.89,1.27-1.78,2.58-.62.9-1.11,1.63-1.5,2.24-.09.15-.18.28-.26.4a6.63,6.63,0,0,0-.66,1.18h0l0,.05h0l0,.06s0,.07,0,.12,0,.21,0,.27.09.17.13.27a4.25,4.25,0,0,0,.21.43c.12.23.26.46.41.72l.28.51a36,36,0,0,1,2,4A27.36,27.36,0,0,1,30,69.87l.58,2.51L28,72.73A7.42,7.42,0,0,0,21.65,80c.21,4.68,2.77,6.44,4.28,7.07A7.68,7.68,0,0,0,34,85.48l3.55,3c-1.46,2.23-3.1,4.8-3.63,5.73a44,44,0,0,0,.12,11.12c0,.26,0,.53.07.79l6.91-1-3,4.42c-.24.36-.49.68-.74,1,.4,2.47,1.44,4.26,2.93,6.82l.56,1,0,.54A14.29,14.29,0,0,0,42,124.08l.7-.92,1.9,2c2,2.16,2.89,2.91,7.23,4.21l1.14.34,1.07,3,1.38-.14.68.42c3,1.89,5.23,2.34,9,2.64l-.16,2ZM140,61.91h0ZM116,26.83h0l.07,0Zm-70.55,0,.07,0h0Zm70.51-.68.17.66a2.34,2.34,0,0,0,1.26-1.15l-1.48-.73Zm-70.8.56.23.1.16-.66.06-1.21-.43.21Zm0-1.56-1.06.51a2.34,2.34,0,0,0,1,1.05Z"/></g><g id="path2026"><path class="cls-8" d="M45.13,24.51a6,6,0,0,0-3.45,1.26,16.09,16.09,0,0,0-3.45,3.95c-2.5,3.73-5.71,10.17-10.14,21.8-.18.25-.89,1.26-1.84,2.65-.52.77-1.07,1.58-1.52,2.29a10.89,10.89,0,0,0-1.12,2h0a2,2,0,0,0-.22.76c-.24,1.42.13,1.56.24,1.83s.21.44.31.63l.71,1.27a32.94,32.94,0,0,1,1.86,3.76,25.66,25.66,0,0,1,1.2,3.74A9.78,9.78,0,0,0,19.3,80c.41,10.12,10.55,12.44,16.31,7.17,0,0-3.42,5.21-3.92,6.25-.94,5.39,0,10.58.31,15.36l4.07-.59c-.39.57-.8,1.06-1.25,1.63.33,3.66,1.75,5.94,3.64,9.19.19,2.73.37,4,2.92,9.67l1.47-1.93c2.32,2.48,3.53,3.44,8.27,4.86l1.29,3.59,2.41-.24c3.5,2.17,6.15,2.67,10,3h0c1.14,5.37,7.22,7.33,9.36,2.64,2.93-1.69,3.77-2.27,6.49-2.41,2.72.14,3.56.72,6.49,2.41,2.14,4.69,8.22,2.73,9.35-2.64h0c3.9-.31,6.55-.81,10-3l2.42.24,1.29-3.59c4.74-1.42,6-2.38,8.27-4.86l1.47,1.93c2.54-5.68,2.72-6.94,2.92-9.67,1.89-3.25,3.3-5.53,3.64-9.19-.45-.57-.86-1.06-1.25-1.63l4.06.59c.34-4.78,1.26-10,.32-15.36-.5-1-3.92-6.25-3.92-6.25,5.76,5.27,15.9,3,16.31-7.17a9.78,9.78,0,0,0-8.41-9.63,24.5,24.5,0,0,1,1.2-3.74,32.94,32.94,0,0,1,1.86-3.76l.71-1.27c.1-.19.2-.37.31-.63s.48-.41.24-1.83a2.24,2.24,0,0,0-.22-.76c.05.13,0,.07,0,0a10.89,10.89,0,0,0-1.12-2c-.45-.71-1-1.52-1.53-2.29-.94-1.39-1.65-2.4-1.83-2.65-4.43-11.63-7.64-18.07-10.14-21.8a16.09,16.09,0,0,0-3.45-3.95,6,6,0,0,0-3.45-1.26h0a5.19,5.19,0,0,0-.61,0l-.18,0-.65.16A129.33,129.33,0,0,0,80.71,38.91,129.49,129.49,0,0,0,46.57,24.68l-.65-.16-.18,0a5.19,5.19,0,0,0-.61,0Zm.83,0c.27,0,.26.08.16.06l-.29-.05Zm69.5,0h.13l-.3.05c-.09,0-.1-.06.17-.06Z"/></g><g id="path1719"><path class="cls-9" d="M132.4,73.24a6.81,6.81,0,1,1-4.6,1.8c.72,2.95,2.48,5.08,4.59,7.43a28.61,28.61,0,0,1-1.2-9.12,7,7,0,0,1,1.21-.11Z"/></g><g id="path828"><path class="cls-10" d="M63.5,64.81s-.07,4.94-.78,5.57-1.48,1-1.56,1.19a43.36,43.36,0,0,0,.11,4.79c.12.29,1.08,2.2,1.13,2.41s-.73,5.09-3,7.82c-1.18,1.14.23,5.75,1.21,8.08.16.28,6.35,5.4,10.65,10.7S75.52,112,80.72,113c5.19-1,5.14-2.36,9.44-7.66s10.5-10.42,10.65-10.7c1-2.33,2.39-6.94,1.21-8.08-2.26-2.73-3-7.61-3-7.82s1-2.12,1.13-2.41a43.36,43.36,0,0,0,.11-4.79c-.07-.15-.85-.56-1.56-1.19s-.78-5.57-.78-5.57c-11.65,3.25-17.21,8.5-17.21,8.5S75.15,68.06,63.5,64.81Zm9.83,14.44a26.09,26.09,0,0,0,7.39,1.64,26.06,26.06,0,0,0,7.38-1.64S86,81.51,80.72,81.74C75.48,81.51,73.33,79.25,73.33,79.25Zm-5.4,1.89c.3-.07,8.06,5.79,8.43,5.84a11.07,11.07,0,0,0,2-.47s-1.26,4.12-7.85,4.85A9.85,9.85,0,0,0,74,89.29a15,15,0,0,1-4.65.13,10.46,10.46,0,0,1-6.56-5.09,26.61,26.61,0,0,1,10.5,2.31s-5-4-5.41-4.15-3.38-.23-3.38-.23,3.19-1,3.48-1.12Zm25.57,0c.3.08,3.48,1.12,3.48,1.12s-3,.1-3.38.23-5.41,4.15-5.41,4.15a26.61,26.61,0,0,1,10.5-2.31,10.41,10.41,0,0,1-6.56,5.09,15,15,0,0,1-4.64-.13,9.85,9.85,0,0,0,3.38,2.07C84.29,90.63,83,86.51,83,86.51a11.13,11.13,0,0,0,2,.47c.37,0,8.13-5.91,8.43-5.84ZM77.31,92s-1.89,1.26-2.47,1.56c0,0,0,0-.06.17A1.54,1.54,0,0,0,75,95a7.06,7.06,0,0,1,1.38.19,5.27,5.27,0,0,1,2.41,1.69,4,4,0,0,0,1,.87,2.24,2.24,0,0,0,1.85,0,3.78,3.78,0,0,0,1-.87A5.27,5.27,0,0,1,85,95.15,7.06,7.06,0,0,1,86.42,95a1.54,1.54,0,0,0,.23-1.22c0-.15-.09-.19-.06-.17C86,93.27,84.12,92,84.12,92a14,14,0,0,1,2.85.82,1,1,0,0,1,.49.71c.16.78-.06,2.06-.87,2.24a11.38,11.38,0,0,0-1.32.17,4.49,4.49,0,0,0-2,1.44,4.58,4.58,0,0,1-1.21,1,2.79,2.79,0,0,1-1.32.3h0a2.72,2.72,0,0,1-1.31-.3,4.76,4.76,0,0,1-1.22-1,4.43,4.43,0,0,0-2-1.44,11.23,11.23,0,0,0-1.31-.17c-.82-.18-1-1.46-.88-2.24a1,1,0,0,1,.49-.71A14.2,14.2,0,0,1,77.31,92Zm-5.8,2.42a9.39,9.39,0,0,1-1.41,2.22,18.32,18.32,0,0,0,10.62,4,18.3,18.3,0,0,0,10.61-4,9.39,9.39,0,0,1-1.41-2.22c.22.07,3,2,3.71,2.22s-1,2.67-3.49,5.12-4.3,5.6-5.12,6.16a6.88,6.88,0,0,1-4.3,1.19,6.91,6.91,0,0,1-4.31-1.19c-.81-.56-2.63-3.71-5.12-6.16s-4.23-4.86-3.49-5.12,3.49-2.15,3.71-2.22Z"/></g><g id="path830"><path class="cls-11" d="M64.45,82.26s3.19-1,3.48-1.12S76,86.93,76.36,87a11.07,11.07,0,0,0,2-.47s-1.26,4.12-7.85,4.85A9.85,9.85,0,0,0,74,89.29a15,15,0,0,1-4.65.13,10.46,10.46,0,0,1-6.56-5.09,26.61,26.61,0,0,1,10.5,2.31s-5-4-5.41-4.15S64.45,82.26,64.45,82.26Z"/></g><g id="path844"><path class="cls-9" d="M71.17,99.1s2.7,3.52,3.12,3.78,4.41,1.49,4.41,1.49a23.26,23.26,0,0,1-3.47-.36,20.85,20.85,0,0,0,2,2.91,7.86,7.86,0,0,0,6.87,0,20,20,0,0,0,2-2.91,23.18,23.18,0,0,1-3.46.36s4-1.23,4.4-1.49,3.13-3.78,3.13-3.78c-3.89,2.2-9.55,2.73-9.55,2.73S75.05,101.3,71.17,99.1Z"/></g><g id="path846"><path class="cls-7" d="M45.11,27.45c-1.56,0-5.49,1.94-14.41,25.46,0,0-4.3,6.08-4.41,6.75s6.41,8.76,4.56,18.92c0,0,5.79-7.79,2.67-19.29l1.93,2.6a37,37,0,0,1,9.42-11L43.54,46a36.7,36.7,0,0,0,9.79,7.34s-4.45,13.43,6,21.45c0,0,.12-4.06.18-4.22s1.75-1.68,1.81-1.84a55.91,55.91,0,0,0,.47-5.85l-2.1-1.31s8.11-1,21,8.63c12.9-9.65,21-8.63,21-8.63l-2.1,1.31a55.23,55.23,0,0,0,.48,5.85c0,.16,1.75,1.68,1.81,1.84s.17,4.22.17,4.22c10.46-8,6-21.45,6-21.45A36.7,36.7,0,0,0,117.89,46l-1.33,4.89a37,37,0,0,1,9.42,11l1.93-2.6c-3.12,11.5,2.67,19.29,2.67,19.29-1.85-10.16,4.68-18.25,4.57-18.92s-4.42-6.75-4.42-6.75c-11-28.94-14.39-25.23-15.14-25.38A123.36,123.36,0,0,0,80.72,42.37,123.34,123.34,0,0,0,45.84,27.53c-.14,0-.37-.08-.73-.08Z"/></g><g id="path865" class="cls-12"><path class="cls-13" d="M72.57,76.31a12.4,12.4,0,0,0-3.92,5.25c.36.23.83.56,1.36.94a31.23,31.23,0,0,1,2.56-6.19Zm-4.36,6.42a16.83,16.83,0,0,0-.53,2.12c.53.1,1.08.22,1.64.36.1-.46.21-.93.33-1.4-.58-.45-1.1-.84-1.44-1.08Zm-.8,6A25.45,25.45,0,0,0,68.6,95.4a33,33,0,0,1,.09-6.14A8.5,8.5,0,0,1,67.41,88.75Z"/></g><g id="path1010"><path class="cls-9" d="M45.11,27.45c-1.56,0-5.49,1.94-14.41,25.46,0,0,9-19.22,14.33-22.78A109,109,0,0,1,80.72,45.24,108.9,108.9,0,0,1,116.4,30.13c5.35,3.56,14.33,22.78,14.33,22.78-8.92-23.52-12.85-25.48-14.41-25.46-.35,0-.59.11-.73.08A123.36,123.36,0,0,0,80.72,42.37,123.34,123.34,0,0,0,45.84,27.53c-.14,0-.37-.08-.73-.08Z"/></g><g id="path1015"><path class="cls-14" d="M43.54,46a36.7,36.7,0,0,0,9.79,7.34s-4.45,13.43,6,21.45c0,0,.12-4.06.18-4.22s1.75-1.68,1.81-1.84a55.91,55.91,0,0,0,.47-5.85l-2.1-1.31s8.11-1,21,8.63c12.9-9.65,21-8.63,21-8.63l-2.1,1.31a55.23,55.23,0,0,0,.48,5.85c0,.16,1.75,1.68,1.81,1.84s.17,4.22.17,4.22c10.46-8,6-21.45,6-21.45A36.7,36.7,0,0,0,117.89,46s-8.46,4.3-14.1,5.49l1.34,1.78s-9-.91-24.41,10.43C65.29,52.37,56.3,53.28,56.3,53.28l1.34-1.78C52,50.31,43.54,46,43.54,46Zm.4,1.46a24.11,24.11,0,0,0-9.66,8.73l.21-3.35a30.41,30.41,0,0,1-8.16,6.69.41.41,0,0,0,0,.12c-.12.67,6.41,8.76,4.56,18.92,0,0,5.79-7.79,2.67-19.29l1.93,2.6a37,37,0,0,1,9.42-11Zm73.56,0-.94,3.43a37,37,0,0,1,9.42,11l1.93-2.6c-3.12,11.5,2.67,19.29,2.67,19.29-1.85-10.16,4.68-18.25,4.57-18.92l0-.12a30.56,30.56,0,0,1-8.17-6.69l.21,3.35a24.12,24.12,0,0,0-9.65-8.73Z"/></g><g id="path1020" class="cls-12"><path class="cls-15" d="M60.62,94.67c.16.28,6.35,5.4,10.65,10.7S75.52,112,80.72,113h0c5.19-1,5.14-2.36,9.44-7.66s10.5-10.42,10.65-10.7a64.9,64.9,0,0,0-8.76,6.87c.57-.94,2.21-3.51,1.75-4.67.09.69-1.51,2.78-3.66,4.9-2.49,2.45-4.3,5.6-5.12,6.16a6.88,6.88,0,0,1-4.3,1.19h0a6.91,6.91,0,0,1-4.31-1.19c-.81-.56-2.63-3.71-5.12-6.16-2.15-2.12-3.75-4.21-3.65-4.9-.47,1.16,1.17,3.73,1.74,4.67A64.9,64.9,0,0,0,60.62,94.67Zm7,2.2a.76.76,0,0,1,.09-.18A.26.26,0,0,0,67.64,96.87Zm26.16,0a.24.24,0,0,0-.1-.18A1.62,1.62,0,0,1,93.8,96.87Z"/></g><g id="path1025"><path class="cls-16" d="M74.34,92.91c-1.57.87-1,3.32.16,3.54h0a5.5,5.5,0,0,1,3.3,1.93,3.53,3.53,0,0,0,2.92,1.7h0a3.53,3.53,0,0,0,2.91-1.7,5.5,5.5,0,0,1,3.3-1.93h0c1.18-.22,1.73-2.67.17-3.54a1,1,0,0,1,.36.63c.16.78-.06,2.06-.87,2.24a11.38,11.38,0,0,0-1.32.17,4.49,4.49,0,0,0-2,1.44,4.58,4.58,0,0,1-1.21,1,2.79,2.79,0,0,1-1.32.3h0a2.72,2.72,0,0,1-1.31-.3,4.76,4.76,0,0,1-1.22-1,4.43,4.43,0,0,0-2-1.44,11.23,11.23,0,0,0-1.31-.17c-.82-.18-1-1.46-.88-2.24a1.06,1.06,0,0,1,.37-.63Z"/></g><g id="path1030" class="cls-12"><path class="cls-15" d="M63.5,64.81s-.07,4.94-.78,5.57-1.48,1-1.56,1.19a43.36,43.36,0,0,0,.11,4.79c.09.23.7,1.44,1,2.06a21,21,0,0,1-.38-2.21,25,25,0,0,1,.29-3.73c.15-.22,2-1.15,2.27-1.36a15.08,15.08,0,0,0,.91-2.74,37.58,37.58,0,0,1,15.38,4.93S75.15,68.06,63.5,64.81Z"/></g><g id="path1055"><path class="cls-16" d="M71.17,99.1s2.7,3.52,3.12,3.78a13.09,13.09,0,0,0,1.51.56c-.36-1.1-.59-2-.59-2a26.65,26.65,0,0,0,5.51.87,26.75,26.75,0,0,0,5.51-.87s-.24.9-.6,2a12.35,12.35,0,0,0,1.51-.56c.42-.26,3.13-3.78,3.13-3.78-3.89,2.2-9.55,2.73-9.55,2.73S75.05,101.3,71.17,99.1ZM75.23,104a20.85,20.85,0,0,0,2,2.91h0A13.62,13.62,0,0,1,76,104.15l-.8-.14Zm11,0-.8.14a13.1,13.1,0,0,1-1.26,2.77h0a20,20,0,0,0,2-2.91Z"/></g><g id="path1106"><path class="cls-11" d="M97,82.26s-3.18-1-3.48-1.12S85.44,86.93,85.07,87a10.94,10.94,0,0,1-2-.47s1.26,4.12,7.84,4.85a9.85,9.85,0,0,1-3.38-2.07,15,15,0,0,0,4.64.13,10.41,10.41,0,0,0,6.56-5.09,26.61,26.61,0,0,0-10.5,2.31s5-4,5.41-4.15S97,82.26,97,82.26Z"/></g><g id="path1120" class="cls-12"><path class="cls-13" d="M88.86,76.31a12.4,12.4,0,0,1,3.92,5.25c-.36.23-.83.56-1.36.94a30.64,30.64,0,0,0-2.56-6.19Zm4.36,6.42a16.83,16.83,0,0,1,.53,2.12c-.53.1-1.08.22-1.64.36-.1-.46-.21-.93-.33-1.4C92.36,83.36,92.88,83,93.22,82.73Zm.8,6a25.82,25.82,0,0,1-1.18,6.65,32.53,32.53,0,0,0-.1-6.14A8.5,8.5,0,0,0,94,88.75Z"/></g><g id="path1130" class="cls-12"><path class="cls-15" d="M97.93,64.81s.08,4.94.78,5.57,1.49,1,1.56,1.19a43.36,43.36,0,0,1-.11,4.79c-.09.23-.7,1.44-1,2.06a21,21,0,0,0,.38-2.21,23.76,23.76,0,0,0-.29-3.73c-.15-.22-2-1.15-2.27-1.36a15.08,15.08,0,0,1-.91-2.74,37.56,37.56,0,0,0-15.37,4.93s5.56-5.25,17.21-8.5Z"/></g><g id="path1415" class="cls-12"><path class="cls-13" d="M65.92,86.16a11.12,11.12,0,0,0,1.75,2.16c1,.94,3.07,1.54,6.28,1C74,89.29,72.37,87.74,65.92,86.16Z"/></g><g id="path1417" class="cls-12"><path class="cls-13" d="M95.51,86.16a10.69,10.69,0,0,1-1.75,2.16c-1,.94-3.07,1.54-6.27,1C87.49,89.29,89.06,87.74,95.51,86.16Z"/></g><g id="path1419"><path class="cls-9" d="M53.33,53.35s-4.45,13.43,6,21.45c0,0,0-.7,0-1.48C51.58,67.4,53.33,53.35,53.33,53.35Z"/></g><g id="path1424"><path class="cls-9" d="M108.1,53.35s4.45,13.43-6,21.45c0,0,0-.7,0-1.48C109.85,67.4,108.1,53.35,108.1,53.35Z"/></g><g id="path1674" class="cls-12"><path class="cls-13" d="M70.12,100.55h0c.36.39.76.8,1.17,1.21,2.49,2.45,4.31,5.6,5.12,6.16a6.22,6.22,0,0,0,8.61,0c.82-.56,2.63-3.71,5.12-6.16.42-.41.81-.82,1.17-1.21h0a44.46,44.46,0,0,0-4.8,4.65c-1.87,2.23-1.75,2.09-2.19,2.3a7.79,7.79,0,0,1-3.6.73h0a7.81,7.81,0,0,1-3.61-.73c-.44-.21-.32-.07-2.18-2.3A45.14,45.14,0,0,0,70.12,100.55Z"/></g><g id="path1687"><path class="cls-9" d="M29,73.24A6.81,6.81,0,1,0,33.63,75C32.91,78,31.16,80.12,29,82.47a28.06,28.06,0,0,0,1.2-9.12,7,7,0,0,0-1.2-.11Z"/></g><g id="circle1693" class="cls-17"><path class="cls-18" d="M30.28,74.56v0Zm0,.45a1.09,1.09,0,0,0,0,.18A1.09,1.09,0,0,1,30.28,75Zm3.31.22c-.75,2.85-2.48,4.94-4.55,7.24A40.64,40.64,0,0,0,30,78.12a4.34,4.34,0,0,1-2,.5A4.42,4.42,0,0,1,25,77.49a6.77,6.77,0,0,0,.58,8.42,6.7,6.7,0,0,0,3.42.92,6.79,6.79,0,0,0,5-11.35l-.48-.25Zm-3.33.25c0,.07,0,.14,0,.22C30.25,75.62,30.26,75.55,30.26,75.48Zm0,.46a2.11,2.11,0,0,1,0,.25A2.11,2.11,0,0,0,30.23,75.94Zm0,.45,0,.29Zm-.05.45,0,.33Zm0,.44c0,.13,0,.25-.05.37C30.07,77.53,30.09,77.41,30.1,77.28Zm-.05.43-.06.41Z"/></g><g id="path1712" class="cls-19"><path class="cls-20" d="M33.59,75.23c-.11.39-.23.77-.37,1.13.93,1.25,2.65,4.57-.38,9.31a6.79,6.79,0,0,0,1.23-10.19l-.48-.25Z"/></g><g id="path1721" class="cls-17"><path class="cls-18" d="M131.15,74.56c0,.13,0,.27,0,.41C131.15,74.83,131.15,74.69,131.15,74.56Zm0,.45v0Zm-3.31.22c.74,2.85,2.47,4.94,4.54,7.24a38.3,38.3,0,0,1-.94-4.35,4.33,4.33,0,0,0,4.94-.63,6.78,6.78,0,0,1-.57,8.42,6.79,6.79,0,0,1-8.46-10.43l.49-.25Zm3.32.25c0,.07,0,.14,0,.22C131.18,75.62,131.18,75.55,131.17,75.48Zm0,.46c0,.08,0,.17,0,.25C131.21,76.11,131.21,76,131.2,75.94Zm0,.45a2.64,2.64,0,0,0,0,.29A2.64,2.64,0,0,1,131.24,76.39Zm0,.45c0,.11,0,.22,0,.33C131.3,77.06,131.29,77,131.28,76.84Zm.05.44c0,.12,0,.25,0,.37C131.36,77.53,131.35,77.4,131.33,77.28Zm.06.43c0,.14,0,.27.06.41C131.42,78,131.41,77.85,131.39,77.71Z"/></g><g id="path1723" class="cls-12"><path class="cls-21" d="M127.85,75.23a10.62,10.62,0,0,0,.36,1.13c-.93,1.25-2.65,4.57.38,9.31a6.79,6.79,0,0,1-1.23-10.19Z"/></g><g id="path1808" class="cls-12"><path class="cls-15" d="M49.81,79.17c-.55,0-1.88.51-3.44,2.69a24.19,24.19,0,0,0,9.2,4.33A25.11,25.11,0,0,1,43.7,83.76a12.12,12.12,0,0,0-4.15,4.51L50.11,92.6l-11-1.31A10.73,10.73,0,0,1,38,98.06c-1.9,3.91-2.49,6.34-1.54,9.61,0,0,.53-7.3,5.28-7.3s11.39,1.48,17.67-4.21a30.59,30.59,0,0,1-1.19-4.09,26.94,26.94,0,0,1-9.54-2.2,29.5,29.5,0,0,0,9-.65,26.84,26.84,0,0,1-.2-4.63s-7.12-5.28-7.48-5.4l-.18,0Z"/></g><g id="path1813" class="cls-12"><path class="cls-15" d="M43.38,103.19a8.88,8.88,0,0,1-.17,7,30,30,0,0,0-1.76,12.58s3.86-8.3,5.87-9S59.9,108,65.53,103.53a12.73,12.73,0,0,0-2.47-2.73c-.89-.46-19.68,2.39-19.68,2.39Z"/></g><g id="path1815"><path class="cls-16" d="M68.74,108.44c-2.17-.09-14.83,5.69-18.27,7.65A8.51,8.51,0,0,1,52.69,121c.26,2.93.59,10.9.59,10.9a7.39,7.39,0,0,0,2.64-3.21,32.91,32.91,0,0,1,1.78-4.16c.18-.23,9.2-4.74,9.2-4.74L62.27,124s4.15,1.31,4.15,3.32S67,139.88,70,140.47s2.38-9.73,2.61-10.62,5-8.72,5-8.72l-.72,5.58a8.07,8.07,0,0,1,7.71,0l-.71-5.58s4.74,7.83,5,8.72-.42,11.22,2.61,10.62S95,129.38,95,127.36,99.16,124,99.16,124l-4.63-4.27s9,4.51,9.2,4.74a32.91,32.91,0,0,1,1.78,4.16,7.39,7.39,0,0,0,2.64,3.21s.34-8,.59-10.9a8.49,8.49,0,0,1,2.23-4.89c-3.44-2-16.11-7.74-18.27-7.65s-3.27,2.1-3.92,2.9,4.51,6.89,4.51,6.89-7.54-4.69-8.51-4.48-4.06,2.52-4.06,2.52-3.08-2.31-4.06-2.52-8.52,4.48-8.52,4.48,5.17-6.08,4.51-6.89S70.9,108.53,68.74,108.44Z"/></g><g id="path1817"><path class="cls-20" d="M34.33,100.25s-.21-3.08-.12-4.45,2.25-4.12,2.25-4.12a13.46,13.46,0,0,1-2.13,8.57Z"/></g><g id="path1819"><path class="cls-20" d="M40.53,105a10.66,10.66,0,0,1-2.6,5.71,13.88,13.88,0,0,0,.84,3.06,47.38,47.38,0,0,0,1.93-4.61A5.22,5.22,0,0,0,40.53,105Z"/></g><g id="path1821"><path class="cls-20" d="M48.12,118.12s-1.84,4.75-3.52,6.17a12.55,12.55,0,0,0,3.82,3.11S49.09,121.36,48.12,118.12Z"/></g><g id="path1823"><path class="cls-20" d="M57.94,133.39a12,12,0,0,0,4.32,1.43s.54-4.91-1.64-7.42a10.67,10.67,0,0,0-2.68,6Z"/></g><g id="path1825"><path class="cls-20" d="M80.72,130.68a21.68,21.68,0,0,0-2.55.75c-.65.29-1.42,4.5-1.42,4.5a11.93,11.93,0,0,1,7.94,0s-.77-4.21-1.43-4.5A21.67,21.67,0,0,0,80.72,130.68Z"/></g><g id="path1829"><path class="cls-9" d="M49.52,80.41c-.66.26-3.15,1.45-3.15,1.45a24.19,24.19,0,0,0,9.2,4.33c.79,0,1.4,0,1.87,0v-.82a67.25,67.25,0,0,1-7.92-4.94Zm6,5.78A25.11,25.11,0,0,1,43.7,83.76a12.12,12.12,0,0,0-4.15,4.51l1,.41a11.35,11.35,0,0,1,3.49-3.53,21.19,21.19,0,0,0,11.52,1Zm-16.44,5.1A10.73,10.73,0,0,1,38,98.06c-1.9,3.91-2.49,6.34-1.54,9.61-.06-6.53,3.2-9.44,4.15-11a6.79,6.79,0,0,0,.6-3.9l9-.19Z"/></g><g id="path1834"><path class="cls-9" d="M68.74,108.44c-2.17-.09-14.83,5.69-18.27,7.65A8.51,8.51,0,0,1,52.69,121c.26,2.93.59,10.9.59,10.9a7.64,7.64,0,0,0,2.56-3c-.7.62-1.68,1.41-1.68,1.41s.46-10.4.17-11-1.13-2.94-1.13-2.94,14.76-7,15.69-6.83a21.81,21.81,0,0,1,3.73,1.77C72,110.47,70.86,108.53,68.74,108.44Zm7.87,5.3c-1.17,0-8.47,4.49-8.47,4.49l-1.24,1.54L62.27,124s4.15,1.31,4.15,3.32S67,139.88,70,140.47a1.16,1.16,0,0,0,1.11-.37c-2.35-1.15-2.74-5.1-3-7.58-.23-2.84-.26-5.81-.71-6.7a8.46,8.46,0,0,0-2.52-2.08s11.57-8.87,11.92-8.94a15.16,15.16,0,0,1,2.44.45v0a11.14,11.14,0,0,0-2.6-1.48Z"/></g><g id="path1836"><path class="cls-9" d="M62.54,100.75c-3.19,0-19.16,2.44-19.16,2.44a8.88,8.88,0,0,1-.17,7,30,30,0,0,0-1.76,12.58,37,37,0,0,1,4.09-13.67,18,18,0,0,0,1-4.91l17.28-2.86a3.55,3.55,0,0,0-.71-.58,1.43,1.43,0,0,0-.52,0Z"/></g><g id="path1844" class="cls-19"><path class="cls-20" d="M58.73,94.25a22.84,22.84,0,0,1-5.11,3.07c-2.73,1-7,1-12,1.47s-5.17,8.88-5.17,8.88.53-7.3,5.28-7.3,11.39,1.48,17.67-4.21C59.36,96.16,59.08,95.44,58.73,94.25Z"/></g><g id="path1849"><path class="cls-20" d="M79.26,115.23v0h0l-1.56,3.64-6.89,10.56s1.6,8.44-.57,10.05a3.22,3.22,0,0,0,.85.61c1.75-1.85,1.3-9.49,1.5-10.25s5-8.72,5-8.72l-.72,5.58a7.3,7.3,0,0,1,3.86-1h0a7.28,7.28,0,0,1,3.85,1l-.71-5.58s4.74,7.83,5,8.72-.24,8.4,1.51,10.25a3.34,3.34,0,0,0,.84-.61c-2.17-1.61-.57-10.05-.57-10.05l-6.88-10.56-1.57-3.64h0v0c-.8.55-1.45,1-1.45,1h0s-.66-.49-1.46-1Zm-8.25,25a1.17,1.17,0,0,1-.64.31A1.17,1.17,0,0,0,71,140.18Zm19.42,0a1.11,1.11,0,0,0,.63.31A1.11,1.11,0,0,1,90.43,140.18Zm-20.65.24Zm21.87,0Zm-21.78,0h0Zm21.69,0h0Zm-21.58,0,.08,0Zm21.47,0-.08,0Zm-21.37,0h0Zm21.27,0h0Zm-21.19,0h0Zm21.11,0h0Zm-.13,0h0Z"/></g><g id="path1857"><path class="cls-20" d="M72.62,111.3s-6,5.92-7.56,6.51-9.49,4.57-9.49,4.57-.53,6.32-1.41,7.91c0,0,1-.79,1.68-1.41a5,5,0,0,1-.28.57,5.51,5.51,0,0,0,.36-.78,32.91,32.91,0,0,1,1.78-4.16c.18-.23,9.2-4.74,9.2-4.74l1.24-1.54s5.17-6.08,4.51-6.89l0,0ZM55.5,129.55l-.06.11Zm-.12.19-.06.1Zm-.16.24-.07.1Zm-.13.17-.07.09Zm-.13.17-.12.14Zm-.18.21-.06.08Zm-.13.16-.06.06Zm-.18.18-.18.19Zm-.23.23-.13.12Zm-.19.17a.71.71,0,0,1-.13.12A.71.71,0,0,0,54.05,131.27Zm-.22.2,0,0h0l0,0Z"/></g><g id="path1865"><path class="cls-20" d="M64.69,102.42c-7.41,5.08-17.46,8.55-19.15,10.41s-4.09,10-4.09,10,3.86-8.3,5.87-9S59.9,108,65.53,103.53C65.53,103.53,65.17,103,64.69,102.42Z"/></g><g id="path1870" class="cls-12"><path class="cls-15" d="M111.63,79.17c.54,0,1.87.51,3.43,2.69a24.1,24.1,0,0,1-9.19,4.33,25.08,25.08,0,0,0,11.86-2.43,12.12,12.12,0,0,1,4.15,4.51L111.32,92.6l11-1.31a10.81,10.81,0,0,0,1.18,6.77c1.9,3.91,2.5,6.34,1.55,9.61,0,0-.54-7.3-5.28-7.3s-11.39,1.48-17.68-4.21a28.87,28.87,0,0,0,1.19-4.09,27,27,0,0,0,9.55-2.2,29.54,29.54,0,0,1-9-.65,25.85,25.85,0,0,0,.21-4.63s7.12-5.28,7.47-5.4l.19,0Z"/></g><g id="path1872"><path class="cls-16" d="M118.05,103.19a8.88,8.88,0,0,0,.17,7A29.72,29.72,0,0,1,120,122.82s-3.86-8.3-5.87-9S101.54,108,95.9,103.53a12.85,12.85,0,0,1,2.48-2.73C99.26,100.34,118.05,103.19,118.05,103.19Z"/></g><g id="path1876"><path class="cls-20" d="M127.1,100.25s.21-3.08.12-4.45S125,91.68,125,91.68A13.54,13.54,0,0,0,127.1,100.25Z"/></g><g id="path1878"><path class="cls-20" d="M120.9,105a10.76,10.76,0,0,0,2.6,5.71,13.7,13.7,0,0,1-.83,3.06,47.38,47.38,0,0,1-1.93-4.61,5.24,5.24,0,0,1,.16-4.16Z"/></g><g id="path1880"><path class="cls-20" d="M113.31,118.12s1.85,4.75,3.52,6.17A12.59,12.59,0,0,1,113,127.4S112.35,121.36,113.31,118.12Z"/></g><g id="path1882"><path class="cls-20" d="M103.49,133.39a12,12,0,0,1-4.32,1.43s-.54-4.91,1.64-7.42A10.59,10.59,0,0,1,103.49,133.39Z"/></g><g id="path1886"><path class="cls-9" d="M111.92,80.41c.65.26,3.14,1.45,3.14,1.45a24.1,24.1,0,0,1-9.19,4.33c-.8,0-1.41,0-1.88,0,0-.27,0-.54,0-.82a67.81,67.81,0,0,0,7.93-4.94Zm-6,5.78a25.08,25.08,0,0,0,11.86-2.43,12.12,12.12,0,0,1,4.15,4.51l-1,.41a11.35,11.35,0,0,0-3.49-3.53A21.15,21.15,0,0,1,105.87,86.19Zm16.43,5.1a10.81,10.81,0,0,0,1.18,6.77c1.9,3.91,2.5,6.34,1.55,9.61.06-6.53-3.21-9.44-4.16-11a6.88,6.88,0,0,1-.6-3.9l-9-.19Z"/></g><g id="path1888"><path class="cls-9" d="M92.7,108.44c2.16-.09,14.83,5.69,18.27,7.65a8.49,8.49,0,0,0-2.23,4.89c-.25,2.93-.59,10.9-.59,10.9a7.64,7.64,0,0,1-2.56-3c.71.62,1.68,1.41,1.68,1.41s-.46-10.4-.17-11,1.13-2.94,1.13-2.94-14.76-7-15.68-6.83a21.45,21.45,0,0,0-3.73,1.77C89.47,110.47,90.57,108.53,92.7,108.44Zm-7.87,5.3c1.16,0,8.46,4.49,8.46,4.49l1.24,1.54L99.16,124S95,125.35,95,127.36s-.53,12.52-3.56,13.11a1.13,1.13,0,0,1-1.1-.37c2.35-1.15,2.73-5.1,2.94-7.58.24-2.84.27-5.81.71-6.7a8.59,8.59,0,0,1,2.52-2.08S85,114.87,84.6,114.8a15,15,0,0,0-2.43.45v0a11.37,11.37,0,0,1,2.61-1.48Z"/></g><g id="path1890"><path class="cls-9" d="M98.89,100.75c3.19,0,19.16,2.44,19.16,2.44a8.88,8.88,0,0,0,.17,7A29.72,29.72,0,0,1,120,122.82a37,37,0,0,0-4.09-13.67,17.88,17.88,0,0,1-.94-4.91l-17.29-2.86a3.31,3.31,0,0,1,.72-.58,1.37,1.37,0,0,1,.51,0Z"/></g><g id="path1892" class="cls-19"><path class="cls-20" d="M102.7,94.25a22.7,22.7,0,0,0,5.12,3.07c2.72,1,7,1,12,1.47s5.18,8.88,5.18,8.88-.54-7.3-5.28-7.3-11.39,1.48-17.68-4.21C102.07,96.16,102.35,95.44,102.7,94.25Z"/></g><g id="path1896"><path class="cls-20" d="M88.82,111.3s6,5.92,7.55,6.51,9.5,4.57,9.5,4.57.52,6.32,1.4,7.91c0,0-1-.79-1.68-1.41a5,5,0,0,0,.28.57,6.91,6.91,0,0,1-.36-.78,32.91,32.91,0,0,0-1.78-4.16c-.18-.23-9.2-4.74-9.2-4.74l-1.24-1.54s-5.16-6.08-4.51-6.89l0,0Zm17.11,18.25.07.11Zm.12.19.06.1Zm.16.24.08.1-.08-.1Zm.13.17.07.09Zm.13.17.12.14Zm.18.21.07.08Zm.14.16,0,.06Zm.17.18.19.19Zm.23.23.14.12Zm.19.17a.75.75,0,0,0,.14.12A.75.75,0,0,1,107.38,131.27Zm.22.2.05,0h0l-.05,0Z"/></g><g id="path1898"><path class="cls-20" d="M96.74,102.42c7.41,5.08,17.46,8.55,19.15,10.41s4.09,10,4.09,10-3.86-8.3-5.87-9S101.54,108,95.9,103.53c0,0,.36-.52.84-1.11Z"/></g><g id="path2018"><path class="cls-7" d="M45,56.38a22.67,22.67,0,0,1-1.35,9.06s1.51,6.79,6,10.48c0,0-3.78-6.08-4.11-9.94,0,0,1.93-7.21,1.93-11.07Z"/></g><g id="path2022"><path class="cls-7" d="M116.46,56.38a22.76,22.76,0,0,0,1.34,9.06s-1.51,6.79-6,10.48c0,0,3.78-6.08,4.11-9.94,0,0-1.93-7.21-1.93-11.07Z"/></g><g id="path2147"><path class="cls-7" d="M70.1,96.65s3.16,4.13,10.62,4.52h0c7.45-.39,10.61-4.52,10.61-4.52a17.92,17.92,0,0,1-10.61,3.94A17.94,17.94,0,0,1,70.1,96.65Z"/></g><path class="cls-9" d="M28.32,149.14l-3.5-3.5V133a2.38,2.38,0,1,0-4.76,0v12.61l-3.5,3.5H10.5L7,145.64V121.48l3.5-3.5h6.06l1.07,1.07,1.54-.89,1.31-.45a15.87,15.87,0,0,1,2-.12A15.45,15.45,0,0,1,37.87,133v12.61l-3.5,3.5Z"/><path class="cls-22" d="M22.44,121.09A11.93,11.93,0,0,1,34.37,133v12.61h-6V133a5.88,5.88,0,1,0-11.76,0v12.61H10.5V121.48h6.06v2.23l4.36-2.52a10.88,10.88,0,0,1,1.52-.1m0-7a19.21,19.21,0,0,0-2.4.15l-2.62.88-.14.08-.72-.72H10.5l-7,7v24.16l7,7h6.06l5.88-5.88,5.88,5.88h6l7-7V133a19,19,0,0,0-18.93-18.94Z"/><path class="cls-9" d="M39,149.15l-3.5-3.5V114.58l3.5-3.5H53.28a12.44,12.44,0,0,1,11,18.23,12.13,12.13,0,0,1,2.49,7.39A12.63,12.63,0,0,1,54,149.15Z"/><path class="cls-22" d="M53.28,114.58a8.94,8.94,0,0,1,6.49,15.1,8.85,8.85,0,0,1,3.52,7,9.12,9.12,0,0,1-9.28,9H39V114.58H53.28m-8.22,12.51h7.88a3.23,3.23,0,1,0,0-6.46H45.06v6.46m0,12.51H54a3.23,3.23,0,0,0,0-6.46H45.06v6.46m8.22-32H39l-7,7v31.07l7,7H54a16.13,16.13,0,0,0,16.28-16,15.71,15.71,0,0,0-2-7.72,16,16,0,0,0-15-21.4Z"/><path class="cls-9" d="M78.66,149.54a16,16,0,1,1,16-16,16.92,16.92,0,0,1-.23,2.75l-1.31,1.1.77,1.06A15.94,15.94,0,0,1,78.66,149.54Z"/><path class="cls-22" d="M78.66,121.08a12.47,12.47,0,0,1,12.47,12.48,12.73,12.73,0,0,1-.18,2.15H72.6a6.42,6.42,0,0,0,11.21,1.69h6.72a12.48,12.48,0,1,1-11.87-16.32M73,130.43H84.27a6.44,6.44,0,0,0-11.23,0m17.49,7h0M78.66,114.08a19.48,19.48,0,1,0,18.53,25.47l-1-1.3,1.6-1.35a18.68,18.68,0,0,0,.29-3.34,19.5,19.5,0,0,0-19.47-19.48ZM90.53,130.4h0Z"/><path class="cls-9" d="M103,149.54a12.55,12.55,0,0,1-3.53-.49,11.23,11.23,0,0,1-8.27-11V115.82l3.5-3.5h6.06l3.5,3.5V118h2.77l3.5,3.5v5.27l-3.5,3.5h-2.77V137a6.78,6.78,0,0,0,1.73-.33l4.55,3.34v5.52l-2.73,3.41A22,22,0,0,1,103,149.54Z"/><path class="cls-22" d="M100.78,115.82v5.66h6.27v5.27h-6.27v10c-.26,2.61,1.19,3.76,3.41,3.76a9.81,9.81,0,0,0,2.86-.49v5.52a18.92,18.92,0,0,1-4,.54,9.22,9.22,0,0,1-2.55-.34,7.69,7.69,0,0,1-5.74-7.6V115.82h6m0-7h-6l-7,7V138.1A14.66,14.66,0,0,0,98.5,152.41,15.93,15.93,0,0,0,103,153a24.78,24.78,0,0,0,5.58-.72l5.45-6.82V140l-6.27-4.61V133l6.27-6.28v-5.27l-7-7h-.62l-5.65-5.66Z"/><polygon class="cls-9" points="123.18 149.15 119.68 145.65 119.68 143.06 110.53 143.06 107.03 139.56 107.03 135.24 107.29 133.93 115.65 113.27 118.89 111.08 125.42 111.08 128.66 115.89 125.61 123.43 129.23 123.43 132.73 126.93 132.73 131.66 134.58 133.5 134.58 139.56 132.73 141.4 132.73 145.65 129.23 149.15 123.18 149.15"/><path class="cls-22" d="M125.42,114.58h0m0,0-7.66,18.92h5.42v-6.57h6v6.57h1.85v6.06h-1.85v6.09h-6v-6.09H110.53v-4.32l.7-1.74,7.66-18.92h6.53m0-7h-6.53L112.4,112l-7.66,18.93-.7,1.74-.51,2.62v4.32l7,7h6.55l6.1,6.09h6l7-7V141.4l1.85-1.84V133.5l-1.85-1.84v-4.73l-5.88-5.88,1.56-3.85-6.49-9.61Z"/><polygon class="cls-9" points="147.87 149.15 144.37 145.65 144.37 143.06 135.22 143.06 131.72 139.56 131.72 135.24 131.97 133.93 140.33 113.27 143.57 111.08 150.1 111.08 153.35 115.89 150.3 123.43 153.92 123.43 157.42 126.93 157.42 131.66 159.26 133.5 159.26 139.56 157.42 141.4 157.42 145.65 153.92 149.15 147.87 149.15"/><path class="cls-22" d="M150.1,114.58h0m0,0-7.65,18.92h5.42v-6.57h6v6.57h1.84v6.06h-1.84v6.09h-6v-6.09H135.22v-4.32l.7-1.74,7.66-18.92h6.52m0-7h-6.53L137.09,112l-7.66,18.93-.7,1.74-.51,2.62v4.32l7,7h6.55l6.1,6.09h6l7-7V141.4l1.84-1.84V133.5l-1.84-1.84v-4.73L155,121.05l1.55-3.85-6.48-9.61Z"/><path class="cls-9" d="M28.45,148.14l-2.5-2.5V133a3.39,3.39,0,1,0-6.77,0v12.61l-2.5,2.5h-6l-2.5-2.5V121.48l2.5-2.5h6l1.17,1.17L19.8,119l.93-.31a14.1,14.1,0,0,1,1.84-.12A14.45,14.45,0,0,1,37,133v12.61l-2.5,2.5Z"/><path class="cls-23" d="M22.57,121.09A11.93,11.93,0,0,1,34.5,133v12.61H28.45V133a5.89,5.89,0,1,0-11.77,0v12.61h-6V121.48h6v2.23l4.37-2.52a10.88,10.88,0,0,1,1.52-.1m0-5a17.12,17.12,0,0,0-2.15.14l-1.87.63-.94.54-.93-.92h-6l-5,5v24.16l5,5h6l5-5V133a.89.89,0,1,1,1.77,0v12.61l5,5H34.5l5-5V133a17,17,0,0,0-16.93-16.94Z"/><path class="cls-9" d="M39.13,148.15l-2.5-2.5V114.58l2.5-2.5H53.4a11.47,11.47,0,0,1,11.46,11.45,11.33,11.33,0,0,1-1.64,5.88,11.15,11.15,0,0,1,2.7,7.29,11.62,11.62,0,0,1-11.78,11.45Zm15-11.05a.73.73,0,0,0,0-1.46H47.69v1.46Zm-1.07-12.51a.73.73,0,0,0,0-1.46H47.69v1.46Z"/><path class="cls-23" d="M53.4,114.58a8.93,8.93,0,0,1,6.49,15.1,8.83,8.83,0,0,1,3.53,7,9.12,9.12,0,0,1-9.28,9h-15V114.58H53.4m-8.21,12.51h7.88a3.23,3.23,0,0,0,0-6.46H45.19v6.46m0,12.51h9a3.23,3.23,0,0,0,0-6.46h-9v6.46m8.21-30H39.13l-5,5v31.07l5,5h15a14.14,14.14,0,0,0,14.28-14,13.67,13.67,0,0,0-2.25-7.54A13.94,13.94,0,0,0,53.4,109.58Z"/><path class="cls-9" d="M78.78,148.54a15,15,0,1,1,15-15,14.78,14.78,0,0,1-.22,2.57l-1.23,1,.73,1A14.94,14.94,0,0,1,78.78,148.54Z"/><path class="cls-23" d="M78.78,121.08a12.48,12.48,0,0,1,12.48,12.48,12.73,12.73,0,0,1-.18,2.15H72.73a6.42,6.42,0,0,0,11.21,1.69h6.72a12.48,12.48,0,1,1-11.88-16.32m-5.61,9.35H84.4a6.44,6.44,0,0,0-11.23,0m17.49,7h0M78.78,116.08a17.48,17.48,0,1,0,16.64,22.86l-.85-1.17L96,136.56a17.79,17.79,0,0,0,.26-3,17.5,17.5,0,0,0-17.48-17.48ZM90.66,132.4h0Z"/><path class="cls-9" d="M103.15,148.54a11.3,11.3,0,0,1-3.25-.45,10.11,10.11,0,0,1-7.55-10V115.82l2.5-2.5h6.06l2.5,2.5V119h3.77l2.5,2.5v5.27l-2.5,2.5h-3.77v7.46l0,.24a.72.72,0,0,0,.93,1,7.26,7.26,0,0,0,2.11-.38l3.25,2.39v5.52l-2,2.43A21,21,0,0,1,103.15,148.54Z"/><path class="cls-23" d="M100.91,115.82v5.66h6.27v5.27h-6.27v10c-.26,2.61,1.19,3.76,3.41,3.76a9.92,9.92,0,0,0,2.86-.49v5.52a18.92,18.92,0,0,1-4,.54,9.22,9.22,0,0,1-2.55-.34,7.7,7.7,0,0,1-5.75-7.6V115.82h6.06m0-5H94.85l-5,5V138.1a12.7,12.7,0,0,0,9.34,12.39,14.09,14.09,0,0,0,4,.55,23.17,23.17,0,0,0,5.13-.67l3.9-4.87V140l-6.27-4.61v-3.62h1.27l5-5v-5.27l-5-5h-1.27v-.66l-5-5Z"/><polygon class="cls-9" points="123.31 148.15 120.81 145.65 120.81 142.06 110.66 142.06 108.16 139.56 108.16 135.24 108.34 134.3 116.7 113.64 119.02 112.08 125.55 112.08 127.86 115.52 124.26 124.43 129.36 124.43 131.86 126.93 131.86 131.66 133.71 133.5 133.71 139.56 131.86 141.4 131.86 145.65 129.36 148.15 123.31 148.15"/><path class="cls-23" d="M125.55,114.58h0m0,0-7.66,18.92h5.42v-6.57h6.05v6.57h1.85v6.06h-1.85v6.09h-6.05v-6.09H110.66v-4.32l.7-1.74L119,114.58h6.53m0-5H119l-4.64,3.12-7.65,18.93-.71,1.74-.36,1.87v4.32l5,5h7.65v1.09l5,5h6.05l5-5V141.4l1.85-1.84V133.5l-1.85-1.84v-4.73l-5-5H128l2.21-5.48-4.63-6.86Zm0,10Z"/><polygon class="cls-9" points="147.99 148.15 145.49 145.65 145.49 142.06 135.34 142.06 132.84 139.56 132.84 135.24 133.03 134.3 141.39 113.64 143.7 112.08 150.23 112.08 152.55 115.52 148.94 124.43 154.04 124.43 156.54 126.93 156.54 131.66 158.39 133.5 158.39 139.56 156.54 141.4 156.54 145.65 154.04 148.15 147.99 148.15"/><path class="cls-23" d="M150.23,114.58h0m0,0-7.66,18.92H148v-6.57h6.06v6.57h1.84v6.06h-1.84v6.09H148v-6.09H135.34v-4.32l.71-1.74,7.65-18.92h6.53m0-5H143.7l-4.63,3.12-7.66,18.93-.7,1.74-.37,1.87v4.32l5,5H143v1.09l5,5h6.06l5-5V141.4l1.84-1.84V133.5l-1.84-1.84v-4.73l-5-5h-1.4l2.22-5.48-4.63-6.86Zm0,10h0Z"/><path class="cls-9" d="M27.48,147.14l-1.5-1.5V133a4.39,4.39,0,1,0-8.77,0v12.61l-1.5,1.5H9.66l-1.5-1.5V121.48l1.5-1.5h6.05L17,121.24l2.35-1.35.56-.19a13.73,13.73,0,0,1,1.7-.11A13.46,13.46,0,0,1,35,133v12.61l-1.5,1.5Z"/><path class="cls-24" d="M21.59,121.09A11.93,11.93,0,0,1,33.53,133v12.61H27.48V133a5.89,5.89,0,1,0-11.77,0v12.61H9.66V121.48h6.05v2.23l4.37-2.52a10.74,10.74,0,0,1,1.51-.1m0-3a14.87,14.87,0,0,0-1.89.12l-1.12.38-1.75,1-1.12-1.12H9.66l-3,3v24.16l3,3h6.05l3-3V133a2.89,2.89,0,1,1,5.77,0v12.61l3,3h6.05l3-3V133a15,15,0,0,0-14.94-14.94Z"/><path class="cls-9" d="M38.16,147.15l-1.5-1.5V114.58l1.5-1.5H52.43a10.46,10.46,0,0,1,10.45,10.45,10.36,10.36,0,0,1-1.89,6,10.2,10.2,0,0,1,3,7.19,10.63,10.63,0,0,1-10.78,10.45Zm15-9.05a1.73,1.73,0,0,0,0-3.46H45.71v3.46ZM52.1,125.59a1.73,1.73,0,0,0,0-3.46H45.71v3.46Z"/><path class="cls-24" d="M52.43,114.58a8.94,8.94,0,0,1,6.49,15.1,8.83,8.83,0,0,1,3.53,7,9.13,9.13,0,0,1-9.28,9h-15V114.58H52.43m-8.22,12.51H52.1a3.23,3.23,0,0,0,0-6.46H44.21v6.46m0,12.51h9a3.23,3.23,0,0,0,0-6.46h-9v6.46m8.22-28H38.16l-3,3v31.07l3,3h15a12.13,12.13,0,0,0,12.28-12,11.65,11.65,0,0,0-2.59-7.34,11.95,11.95,0,0,0-10.43-17.78Zm-5.22,12H52.1a.23.23,0,0,1,0,.46H47.21v-.46Zm0,12.51h6a.23.23,0,0,1,0,.46h-6v-.46Z"/><path class="cls-9" d="M77.81,147.54a14,14,0,1,1,14-14,13.81,13.81,0,0,1-.21,2.4l-1.15,1,.68.93A13.93,13.93,0,0,1,77.81,147.54ZM74.5,137.21a5,5,0,0,0,3.31,1.27,4.87,4.87,0,0,0,3.31-1.27Zm5-8.28a5.07,5.07,0,0,0-3.38,0Z"/><path class="cls-24" d="M77.81,121.08a12.48,12.48,0,0,1,12.48,12.48,12.73,12.73,0,0,1-.19,2.15H71.75A6.42,6.42,0,0,0,83,137.4h6.72a12.48,12.48,0,1,1-11.87-16.32m-5.61,9.35H83.42a6.43,6.43,0,0,0-11.22,0m17.48,7h0M77.81,118.08a15.48,15.48,0,1,0,14.73,20.24l-.75-1,1.27-1.07a15.84,15.84,0,0,0,.23-2.66,15.5,15.5,0,0,0-15.48-15.48ZM89.69,134.4Z"/><path class="cls-9" d="M102.17,147.54a10.15,10.15,0,0,1-3-.41,9.15,9.15,0,0,1-6.82-9V115.82l1.5-1.5h6.05l1.5,1.5V120h4.77l1.5,1.5v5.27l-1.5,1.5h-4.77v8.61a2.21,2.21,0,0,0,.33,1.62,2.18,2.18,0,0,0,1.59.49,8.37,8.37,0,0,0,2.42-.43L107.7,140v5.52L106.54,147A20,20,0,0,1,102.17,147.54Z"/><path class="cls-24" d="M99.93,115.82v5.66h6.27v5.27H99.93v10c-.25,2.61,1.2,3.76,3.41,3.76a9.81,9.81,0,0,0,2.86-.49v5.52a18.74,18.74,0,0,1-4,.54,9.15,9.15,0,0,1-2.54-.34,7.69,7.69,0,0,1-5.75-7.6V115.82h6.05m0-3H93.88l-3,3V138.1a10.72,10.72,0,0,0,7.9,10.47,12,12,0,0,0,3.39.47,21.27,21.27,0,0,0,4.7-.62l2.33-2.92V140l-3.89-2.87a6.61,6.61,0,0,1-2,.36,3.39,3.39,0,0,1-.43,0,2.27,2.27,0,0,1,0-.44v-7.25h3.27l3-3v-5.27l-3-3h-3.27v-2.66l-3-3Z"/><path class="cls-9" d="M122.33,147.15l-1.5-1.5v-4.59H109.68l-1.5-1.5v-4.32l.11-.56L116.65,114l1.4-.94h6.52l1.39,2.06-4.52,11.18.89-.89h6.06l1.5,1.5V132h.34l1.5,1.5v6.06l-1.5,1.5h-.34v4.59l-1.5,1.5ZM120.83,132v-4.18L119.14,132Z"/><path class="cls-24" d="M124.57,114.58h0m0,0-7.65,18.92h5.42v-6.57h6v6.57h1.84v6.06h-1.84v6.09h-6v-6.09H109.69v-4.32l.7-1.74,7.66-18.92h6.52m0-3h-6.53l-2.79,1.87-7.65,18.93-.71,1.74-.21,1.12v4.32l3,3h9.65v3.09l3,3h6l3-3V141.4l1.84-1.84V133.5l-1.84-1.84v-4.73l-3-3H124l3.33-8.23-2.78-4.11Zm0,6h0Z"/><path class="cls-9" d="M147,147.15l-1.5-1.5v-4.59H134.37l-1.5-1.5v-4.32l.11-.56L141.34,114l1.39-.94h6.53l1.39,2.06-4.52,11.18.89-.89h6l1.5,1.5V132h.35l1.5,1.5v6.06l-1.5,1.5h-.35v4.59l-1.5,1.5ZM145.52,132v-4.18L143.83,132Z"/><path class="cls-24" d="M149.26,114.58h0m0,0L141.6,133.5H147v-6.57h6v6.57h1.85v6.06h-1.85v6.09h-6v-6.09H134.37v-4.32l.7-1.74,7.66-18.92h6.53m0-3h-6.53L140,113.45l-7.66,18.93-.7,1.74-.22,1.12v4.32l3,3H144v3.09l3,3h6l3-3V141.4l1.85-1.84V133.5l-1.85-1.84v-4.73l-3-3h-4.36L152,115.7l-2.78-4.11Zm0,6Z"/><path class="cls-9" d="M27.6,145.64l-.12-.12V132.9a5.76,5.76,0,0,0-11.52,0v12.62l-.12.12H9.79l-.13-.12V121.35l.13-.12h6.05l.12.12v2L20.14,121a10.86,10.86,0,0,1,1.58-.11A12.07,12.07,0,0,1,33.78,132.9v12.62l-.12.12Z"/><path class="cls-22" d="M21.72,121A12,12,0,0,1,33.66,132.9v12.62H27.6V132.9a5.88,5.88,0,0,0-11.76,0v12.62H9.79V121.35h6.05v2.23l4.36-2.52a12.79,12.79,0,0,1,1.52-.1m0-.25a13.3,13.3,0,0,0-1.55.1l-.09,0-4,2.31v-1.8l-.25-.25H9.79l-.25.25v24.17l.25.25h6.05l.25-.25V132.9a5.63,5.63,0,0,1,11.26,0v12.62l.25.25h6.06l.25-.25V132.9a12.21,12.21,0,0,0-12.19-12.19Z"/><path class="cls-9" d="M38.29,145.65l-.13-.12V114.45l.13-.12H52.56a9.07,9.07,0,0,1,6.67,15.21,8.89,8.89,0,0,1,3.47,7,9.26,9.26,0,0,1-9.41,9.08Zm15-6.3a3.11,3.11,0,1,0,0-6.21H44.46v6.21Zm-1.06-12.51a3.11,3.11,0,0,0,0-6.21H44.46v6.21Z"/><path class="cls-22" d="M52.56,114.45a8.94,8.94,0,0,1,6.49,15.1,8.85,8.85,0,0,1,3.52,7,9.13,9.13,0,0,1-9.28,9h-15V114.45H52.56M44.34,127h7.89a3.23,3.23,0,1,0,0-6.46H44.34V127m0,12.52h8.95a3.23,3.23,0,1,0,0-6.46H44.34v6.46m8.22-25.28H38.29l-.25.25v31.08l.25.25h15a9.38,9.38,0,0,0,9.53-9.21,9,9,0,0,0-3.41-7,9.11,9.11,0,0,0,2.35-6.12,9.21,9.21,0,0,0-9.2-9.2Zm-8,6.55h7.64a3,3,0,1,1,0,6H44.59v-6Zm0,12.52h8.7a3,3,0,1,1,0,6h-8.7v-6Z"/><path class="cls-9" d="M77.94,146a12.61,12.61,0,1,1,12.6-12.61,12.08,12.08,0,0,1-.19,2.17l-.12.11H72.06a6.31,6.31,0,0,0,5.88,4,6.24,6.24,0,0,0,5-2.53l.1,0h6.72l.12.16A12.58,12.58,0,0,1,77.94,146Zm5.39-15.86a6.3,6.3,0,0,0-10.79,0Z"/><path class="cls-22" d="M77.94,121a12.47,12.47,0,0,1,12.47,12.47,12.64,12.64,0,0,1-.18,2.15H71.88a6.42,6.42,0,0,0,11.21,1.69h6.72A12.48,12.48,0,1,1,77.94,121m-5.62,9.35H83.55a6.43,6.43,0,0,0-11.23,0m17.49,7h0M77.94,120.71a12.73,12.73,0,1,0,12.11,16.64l-.23-.32H83.09l-.2.1a6.12,6.12,0,0,1-5,2.49,6.19,6.19,0,0,1-5.7-3.78h18l.24-.2a12.49,12.49,0,0,0,.19-2.2,12.74,12.74,0,0,0-12.72-12.72Zm-5.18,9.35a6.18,6.18,0,0,1,10.35,0Z"/><path class="cls-9" d="M102.3,146a9.14,9.14,0,0,1-2.58-.35A7.83,7.83,0,0,1,93.88,138V115.69l.13-.12h6l.12.12v5.54h6.15l.13.12v5.28l-.13.12h-6.15v9.84a3,3,0,0,0,3.29,3.63h0a9.67,9.67,0,0,0,2.82-.49l.17.12v5.52l-.1.12A19,19,0,0,1,102.3,146Z"/><path class="cls-22" d="M100.06,115.69v5.66h6.27v5.28h-6.27v10c-.25,2.61,1.19,3.75,3.41,3.75a9.81,9.81,0,0,0,2.86-.49v5.52a18.22,18.22,0,0,1-4,.54,9.27,9.27,0,0,1-2.55-.34A7.69,7.69,0,0,1,94,138V115.69h6m0-.25H94l-.25.25V138a8,8,0,0,0,5.92,7.84,9.12,9.12,0,0,0,2.62.35,18.65,18.65,0,0,0,4.09-.55l.19-.24v-5.52l-.32-.24a9.5,9.5,0,0,1-2.79.48,3.31,3.31,0,0,1-2.52-.89,3.23,3.23,0,0,1-.64-2.59v-9.73h6l.25-.25v-5.28l-.25-.25h-6v-5.41l-.25-.25Z"/><polygon class="cls-9" points="122.46 145.65 122.34 145.53 122.34 139.56 109.81 139.56 109.69 139.43 109.69 135.12 110.4 133.33 118.06 114.4 118.17 114.33 124.7 114.33 124.82 114.5 117.23 133.25 122.34 133.25 122.34 126.8 122.46 126.67 128.51 126.67 128.64 126.8 128.64 133.25 130.36 133.25 130.48 133.38 130.48 139.43 130.36 139.56 128.64 139.56 128.64 145.53 128.51 145.65 122.46 145.65"/><path class="cls-22" d="M124.7,114.45h0m0,0L117,133.38h5.42V126.8h6v6.58h1.85v6.05h-1.85v6.1h-6v-6.1H109.81v-4.31l.7-1.74,7.66-18.93h6.53m0-.25h-6.54l-.23.16-7.66,18.92-.7,1.74,0,.1v4.31l.25.25h12.4v5.85l.25.25h6l.25-.25v-5.85h1.6l.25-.25v-6.05l-.25-.25h-1.6V126.8l-.25-.25h-6l-.25.25v6.33h-4.8l7.52-18.59-.22-.33Zm0,.5h0Z"/><polygon class="cls-9" points="147.15 145.65 147.02 145.53 147.02 139.56 134.5 139.56 134.37 139.43 134.37 135.12 135.08 133.33 142.74 114.4 142.86 114.33 149.39 114.33 149.5 114.5 141.91 133.25 147.02 133.25 147.02 126.8 147.15 126.67 153.2 126.67 153.32 126.8 153.32 133.25 155.04 133.25 155.17 133.38 155.17 139.43 155.04 139.56 153.32 139.56 153.32 145.53 153.2 145.65 147.15 145.65"/><path class="cls-22" d="M149.39,114.45h0m0,0-7.66,18.93h5.42V126.8h6v6.58H155v6.05H153.2v6.1h-6v-6.1H134.5v-4.31l.7-1.74,7.66-18.93h6.53m0-.25h-6.53l-.24.16L135,133.28l-.71,1.74v4.41l.25.25h12.4v5.85l.25.25h6l.25-.25v-5.85H155l.25-.25v-6.05l-.25-.25h-1.59V126.8l-.25-.25h-6l-.25.25v6.33h-4.8l7.52-18.59-.23-.33Zm0,.5Z"/><path class="cls-1" d="M39.35,93c-.08.11-.05.2-.15.23.7-.86,1-2.07,1.81-2.86A6.57,6.57,0,0,1,43.34,89a3.31,3.31,0,0,1-.55,1l.29-.08a5,5,0,0,1-2,2.24c-.71.47-1.34.45-1.9,1.08Z"/><path class="cls-1" d="M44.7,102c.5-2.45,2.66-2.45,3.31-3.62h0a4.45,4.45,0,0,1-3,3.48Z"/><path class="cls-1" d="M48.46,102.53a4,4,0,0,1-1.05,1.71c1.58-1.25,1.88-1.77,1.88-2C49.14,102.32,48.62,102.69,48.46,102.53Z"/><path class="cls-2" d="M43,111.47c-.12-.61.18-1,.22-1.58s-.54-1-.7-1.49a2.26,2.26,0,0,1,.2-1.48c-.32,0-.78,0-.86-.38a2.2,2.2,0,0,1-2-1.4c-.1-.4.11-.78-.05-1.15s-.37-.44-.38-.94c-.08,0-.19,0-.27,0a4.25,4.25,0,0,1,.13-.87c-1.27.33-2.17-.3-3.34-1S35,99,35.6,98c-.4.23-3.48,3.33-3.63,2.12-.36.06-.72.39-1.09.36,0-.09,0-.2,0-.3a5.09,5.09,0,0,1-2,1.21c-.41.14-1.77.57-1.68-.24-1.06.84-2.28,1.57-3.29,2.5-.5.47-1,1-1.5,1.48.18-.17.36-.34.56-.5a12.36,12.36,0,0,1,17.14,1.31,11.69,11.69,0,0,1,2.91,7.83,5.85,5.85,0,0,1,.55-.9A3.34,3.34,0,0,1,43,111.47Z"/><path class="cls-1" d="M45.59,108.1c-.58-.72-2.18-.3-2-1.21s3.46-.41,3.15-4c-.49,1.61-2,2.7-3.66,1.71-.94-.69-.42-2,.95-2.37-1.68,0-2.42,1.61-3.09,1.77-.9-1.77,1.66-2.34,2.65-3.54a10.54,10.54,0,0,0,2.6-4.9c-2.2,3.52-4.15,2.71-4.29,1.4-.61.54-1.83,2.18-2.65,2a.83.83,0,0,0-.11-.5c-.62.27-1.68,1.58-2.29.62-1.07-2,2.46-4.66,4.52-6.52-2.19,1.31-4.16,1.86-5.09,3,0-2.08-1.65.25-2.68.15-2.53-.43.23-2.49,1.7-3.11-3.81.67-5,2.06-7.09,4.9l-.15-.07c-1.23.82-1.46,3.55-3,3.39-1-.31.71-2.15.55-2.5a12.94,12.94,0,0,0-5,5,15.1,15.1,0,0,0-1.73,8.59,11.65,11.65,0,0,1,3.57-6.73c.48-.51,1-1,1.5-1.48,1-.93,2.23-1.66,3.29-2.5-.09.81,1.27.38,1.68.24a5.09,5.09,0,0,0,2-1.21c0,.1,0,.21,0,.3.37,0,.73-.3,1.09-.36.15,1.21,3-1.5,3.41-1.73-.62,1-1,2.23.22,3a4.89,4.89,0,0,0,3.71.85,4.25,4.25,0,0,0-.13.87c.08,0,.19,0,.27,0,0,.5.2.53.38.94s0,.75.05,1.15a2.2,2.2,0,0,0,2,1.4c.08.38.54.39.86.38a2.26,2.26,0,0,0-.2,1.48c.16.51.73,1,.7,1.49s-.34,1-.22,1.58a3.34,3.34,0,0,0,.59,1.35,5.85,5.85,0,0,0-.55.9,7.63,7.63,0,0,1,0,.82c0,.36-.07.72-.13,1.08,1.21-1.63,2.38-1.7,3.16-2.46,2-2,1-3.25,2.3-4.49-.65,0-1.92,1.33-2.76,1.83C44.34,111.24,43.25,108.89,45.59,108.1Z"/><path class="cls-2" d="M28,100.25c-.07.09-.08.19-.14.19.62-.68,1.06-1.86,1.75-2.44a3.2,3.2,0,0,1,1.77-.75,3.09,3.09,0,0,1-.56.88H31a3.9,3.9,0,0,1-1.73,1.75c-.55.28-1,.07-1.43.55Z"/><path class="cls-3" d="M42.21,110.71a11.79,11.79,0,0,0-21.64-2.41,11.78,11.78,0,1,0,21.64,2.41Z"/><path class="cls-4" d="M42.21,110.71a11.79,11.79,0,0,0-21.64-2.41,11.78,11.78,0,1,0,21.64,2.41Zm-14.09-8a11.69,11.69,0,0,1,1.88-.3,11.34,11.34,0,0,1,4,.4,5.65,5.65,0,0,1,1,.39l1.33.73,0,0,0,1,0,1h-.52c-.44,0-1.24,0-1.57.06h0c-.38,0-1.21.13-1.67.19h-.13l-.42,0-.5-.28c-.37-.2-.86-.46-1.31-.68l-.24-.1h0l-.08,0a14.65,14.65,0,0,0-2.2-.72c0-.06.05-.23.09-.41.1-.44.19-.88.29-1.32Zm-8.83,11.1h.35a2.86,2.86,0,0,0,.05.31,10.84,10.84,0,0,0,.38,1.53h0v0a8,8,0,0,0,.58,1.35l.22.41v0a5.52,5.52,0,0,0,.17.92l.06.23v0l0,.06c0,.06,0,.12,0,.17.07.24.14.48.22.73A11.73,11.73,0,0,0,22,121l.06.12a1.92,1.92,0,0,0,.14.26,1.14,1.14,0,0,0,.1.19l0,0-.1.05,0,0A11.73,11.73,0,0,1,19.29,113.82Zm5.53.82c0-.16.08-.32.12-.45v0a.94.94,0,0,1,0-.09c.16-.55.76-2.13.82-2.27l.66-.19c.63-.18,1.47-.4,1.85-.49h0c.91-.18,2.43-.41,2.55-.43l2,2.15,1.3,1.4.09.1.08.09c0,.17-.61,2-.82,2.6-.1.28-.32.85-.67,1.73l-.24.61v0h0l-.51.1-1.26.25-3,.6h0l-1.28-1.37c-.18-.2-.36-.4-.53-.61-.39-.46-1.42-1.86-1.5-2h0v-.06l.11-.52.06-.29c0-.17.07-.34.11-.51S24.8,114.76,24.82,114.64Zm4.79,10.88-.19-.13-.14-.1-1.13-.81-1.52-1.08,0,0h0l.17-.54c.14-.43.24-.73.3-.87.16-.4.67-1.47.72-1.59l4.5-.9.19,0,.12,0h0l3.34,2.1.16.1.07,0c-.07.14-.5,1.11-.66,1.45-.06.15-.18.42-.3.68l-.35.77-.42.12c-.63.19-1.29.38-2,.53a14,14,0,0,1-1.95.29l-.33,0-.54,0Zm-4.91-8.77c.24.33.58.78.87,1.15C25.21,117.46,24.91,117.05,24.7,116.75Zm-2.34,4.92h0a19.28,19.28,0,0,0,2.12,1.06,20.68,20.68,0,0,0,2.06.68l.18.13,1.68,1.19,1,.72.1.07a11.61,11.61,0,0,1-4.22-1.36,11.8,11.8,0,0,1-3-2.41Zm13.2,2.9H34.9a.93.93,0,0,1,.05-.1l.74-1.64.51-1.15.06,0,.22-.16a14.14,14.14,0,0,0,1.38-1.08l.36-.31c.25-.23.74-.75,1.1-1.14l.63-.69h1.74a14,14,0,0,1-.64,1.36,11.67,11.67,0,0,1-5.41,5Zm6.15-6.39H40c0-.17-.05-.36-.07-.56-.06-.45-.18-1.24-.26-1.54-.25-.93-.78-2.25-.82-2.37l0-.17c.16-.5.45-1.39.55-1.77s.36-1.91.39-2.08c.11,0,.71-.12.94-.13a8.69,8.69,0,0,1,.89,0,11.15,11.15,0,0,1,.4,1.15A11.49,11.49,0,0,1,41.71,118.18Zm-1.94-8.53h0v0s-.28,1.59-.4,2.09-.38,1.27-.54,1.77l-.06.18h0a20.6,20.6,0,0,1-2.19.47c-.9.13-2,.21-2.2.22h0l-.09-.1-.09-.1-1.29-1.4-2-2.15a17.85,17.85,0,0,1,.45-2.23,18.3,18.3,0,0,1,.75-2.06l.41,0,.13,0c.46-.06,1.29-.16,1.67-.19h0l1.56,0,.54,0h0a16,16,0,0,1,1.83,1.7A17.58,17.58,0,0,1,39.77,109.65ZM23.88,108h0l.09.25.37,1c.08.22.21.53.29.7l0,.06a10.27,10.27,0,0,0,.8,1.41c.15.21.26.36.28.4s-.66,1.73-.82,2.27c0,0,0,.06,0,.09s0,0,0,.06c-.07.25-.13.51-.19.77l-.06.25a7.79,7.79,0,0,0-.23,1.13l-.55.23-.18.07c-.33.13-.67.27-1,.38l-1.31.35-.16,0-.28.07a9.44,9.44,0,0,1-.45-.9,8.44,8.44,0,0,1-.36-.9c-.19-.62-.3-1.14-.37-1.47s0-.33-.06-.36v0c0-.19.07-.4.12-.64s.07-.29.11-.43l0-.17.12-.52c.09-.39.18-.79.3-1.18s.45-1.18.71-1.78l.27-.63.91-.27.34-.08a6.26,6.26,0,0,1,.66-.07Zm-3.14,1.78c.05-.11.09-.22.14-.32C20.83,109.55,20.79,109.66,20.74,109.77ZM38.27,105l-.28-.2a16.21,16.21,0,0,0-1.58-.87h0l-.08,0L35,103.17l-.25-.12a11.28,11.28,0,0,1,1.74.78A10.93,10.93,0,0,1,38.27,105Zm-10.2-2.31h0c-.09.44-.19.88-.28,1.32l-.09.43a12.52,12.52,0,0,0-2.06,1.58c-.45.46-1.09,1.13-1.42,1.49l-.34.37h0l-.62,0a5.82,5.82,0,0,0-.66.08l-.34.08c-.42.11-.89.26-.92.27a4.79,4.79,0,0,1-.08-.5,2.08,2.08,0,0,1,0-.44A11.59,11.59,0,0,1,28.07,102.73Z"/><path class="cls-5" d="M33.83,114.54l-3.11-3.49-3,.63a4.59,4.59,0,0,1,.75,0c1.41.18,2.51,1.46,3.22,2.6a4.27,4.27,0,0,1,.16,4.39,3.64,3.64,0,0,1-.3.46l.86-.18Z"/><path class="cls-6" d="M38.72,114.19l-4,.64a1.85,1.85,0,0,0-.19.48c-.15.38-.31.75-.46,1.13l-.54,1.35a5.78,5.78,0,0,0-.39,1,2.77,2.77,0,0,1,.65-.19,5.28,5.28,0,0,1,.88-.18,4,4,0,0,1,1.69.22c.55.17,1.05.56,1.65.46a4.88,4.88,0,0,0,1.27-.53c.29-.15.5-.22.45-.58a8.75,8.75,0,0,0-.23-.88c-.25-.92-.5-1.83-.74-2.74C38.77,114.38,38.72,114.19,38.72,114.19Z"/><path class="cls-6" d="M30.58,110.34a.51.51,0,0,0,.2-.18c.11-.21,0-.52,0-.75s.09-.63.16-1,.16-.64.25-1,.27-.55.36-.84-.94-.63-1.24-.77c-.53-.24-1-.53-1.58-.73-.19-.07-1.15-.77-1.15-.16,0,.3.61.56.82.69a3.19,3.19,0,0,1,1.28,1.73,2.56,2.56,0,0,1-.71,2,3.72,3.72,0,0,1-1.5,1c-.29.13-1,.19-1,.64a1.54,1.54,0,0,0,.67-.07c.63-.12,1.24-.29,1.87-.43.31-.07.65,0,1-.11A1.82,1.82,0,0,0,30.58,110.34Z"/><path class="cls-5" d="M35.73,121.78,32.4,119.9l-3,.45c.25,0,.51,0,.74,0a4.94,4.94,0,0,1,3.12,1.32c.79.71,1.45,1.8.63,2.6a7.87,7.87,0,0,1-.62.53l1.16-.39Z"/><path class="cls-5" d="M25.27,111.89s-1.59-3.62-1.6-3.63a3.06,3.06,0,0,0-.61,0c-.18.07-.17.12-.13.3.06.34.36.6.49.9a13.39,13.39,0,0,1,.68,2.18,4.7,4.7,0,0,1-.21,3.42,3.84,3.84,0,0,1-.75.95,2.44,2.44,0,0,0-.42.43c-.09.13-.09.29-.21.41l.84-.34c.09,0,.78-.23.81-.32Z"/><path class="cls-5" d="M39.55,109.69l-3.33-3.54-1.83.16c-.41,0-.54.07-.28.43a7.27,7.27,0,0,0,.54.57,6.51,6.51,0,0,1,1,1.12,4.37,4.37,0,0,1,.67,2.12c0,.67-.61,1.32-.52,2,0,.39.35.67.39,1.09s.53.39,1,.3l1.47-.31Z"/><path class="cls-5" d="M41.57,117.68a.62.62,0,0,1-.22,0c-.41,0-.81,0-1.21,0a5.38,5.38,0,0,1,0-.9,5.14,5.14,0,0,0-.12-1,6.89,6.89,0,0,0-.32-1.16c-.07-.19-.35-.57-.31-.78s.17-.56.25-.85a4.72,4.72,0,0,0,.12-.84c.06-.41.08-.83.15-1.24a4.78,4.78,0,0,1,.22-.85c.44,0,.88,0,1.32,0,.08.6.44,1.16.54,1.76,0,.27.12.55.17.82a3.79,3.79,0,0,1,.14,1.2,13.38,13.38,0,0,0-.22,1.39c0,.29,0,.58-.06.87a4.75,4.75,0,0,1-.23,1C41.75,117.43,41.73,117.6,41.57,117.68Z"/></svg>